<svg xmlns="http://www.w3.org/2000/svg" width="96.87" height="58.951"><defs><filter id="a" x="-60" y="-57" width="216.87" height="178.951" filterUnits="userSpaceOnUse"><feOffset dy="3"/><feGaussianBlur stdDeviation="20" result="blur"/><feFlood flood-color="#e8efff"/><feComposite operator="in" in2="blur"/><feComposite in="SourceGraphic"/></filter><clipPath id="b"/></defs><g data-name="Mask Group 12"><g data-name="Group 266" clip-path="url(#b)"><g data-name="Group 265" fill="#225dfe" stroke="#225dfe" stroke-width=".3" transform="translate(-53.944 42)"><path data-name="Path 123" d="M53.08 39.977a8.126 8.126 0 0 1-4.035 2.338l-13.759 2.439a3.936 3.936 0 0 0-1.862-4.574l-8.483-4.777a6.956 6.956 0 0 0-6.621-.1l-6.62 3.353-1.448-4.269a.975.975 0 0 0-.931-.813H1.044a1.285 1.285 0 0 0-.828.407.763.763 0 0 0-.1.915l8.276 24.393a.991.991 0 0 0 .931.711H17.6a1.286 1.286 0 0 0 .828-.406.974.974 0 0 0 .1-.915l-2.276-6.81h.621l11.483 3.964c.1 0 .207.1.31.1h.207l15.1-2.643a26.4 26.4 0 0 0 14.483-7.826 4.238 4.238 0 0 0 0-5.489 3.736 3.736 0 0 0-5.376.002zm-43.036 17.99l-7.552-22.36H8.6l7.552 22.361zm46.864-13.925a23.994 23.994 0 0 1-13.345 7.216l-14.794 2.643-11.38-3.964c-.1 0-.207-.1-.31-.1h-1.448l-3.207-9.452h.1l6.931-3.456a5.027 5.027 0 0 1 4.655.1l8.483 4.777a1.791 1.791 0 0 1 .931 1.321 2.164 2.164 0 0 1-.517 1.728 1.03 1.03 0 0 1-.517.407l-.828.1a.793.793 0 0 1-.414-.1l-10.035-3.456a.93.93 0 0 0-1.241.61.908.908 0 0 0 .621 1.22l10.035 3.456a3.065 3.065 0 0 0 .931.2c.1 0 .31.1.517 0l17.38-3.049a10.407 10.407 0 0 0 5.173-2.846 1.593 1.593 0 0 1 2.379 0 1.987 1.987 0 0 1-.1 2.646z"/><path data-name="Path 124" d="M42.781 34.557a17.279 17.279 0 1 0-17.219-17.279 17.235 17.235 0 0 0 17.219 17.279zm0-32.525a15.246 15.246 0 1 1-15.194 15.246A15.2 15.2 0 0 1 42.781 2.037z"/><path data-name="Path 125" d="M42.783 30.492a13.213 13.213 0 1 0-13.17-13.213 13.164 13.164 0 0 0 13.17 13.213zm0-24.393a11.18 11.18 0 1 1-11.142 11.18A11.129 11.129 0 0 1 42.783 6.098z"/><path data-name="Path 126" d="M38.419 22.623a1.092 1.092 0 0 0 .709-.3l8.1-8.131a1.004 1.004 0 0 0-1.418-1.423l-8.1 8.131a.985.985 0 0 0 0 1.423 1.092 1.092 0 0 0 .709.3z"/><path data-name="Path 127" d="M38.347 18.537a.918.918 0 0 0 .709-.3l4.052-4.066a1.004 1.004 0 0 0-1.418-1.423l-4.052 4.066a.985.985 0 0 0 0 1.423.918.918 0 0 0 .709.3z"/><path data-name="Path 128" d="M45.837 16.89l-4.052 4.066a.985.985 0 0 0 0 1.423.977.977 0 0 0 1.418 0l4.052-4.066a1.004 1.004 0 1 0-1.418-1.423z"/><ellipse data-name="Ellipse 27" cx="1.013" cy="1.016" rx="1.013" ry="1.016" transform="translate(11.396 53.907)"/></g></g></g></svg>