<svg xmlns="http://www.w3.org/2000/svg" xmlns:xlink="http://www.w3.org/1999/xlink" width="60" height="60" viewBox="0 0 60 60"><defs><filter id="a" x="-60" y="-57" width="180" height="180" filterUnits="userSpaceOnUse"><feOffset dy="3" input="SourceAlpha"/><feGaussianBlur stdDeviation="20" result="b"/><feFlood flood-color="#e8efff"/><feComposite operator="in" in2="b"/><feComposite in="SourceGraphic"/></filter><clipPath id="c"><g transform="matrix(1, 0, 0, 1, 0, 0)" filter="url(#a)"><path d="M0,0H60V59.777c0,.123-.061.223-.135.223H.135C.061,60,0,59.9,0,59.777Z" transform="translate(18.43)" fill="#225dfe" stroke="#225dfe" stroke-width="0.3"/></g></clipPath></defs><g transform="translate(-18.426)" clip-path="url(#c)"><g transform="translate(18.426 0)"><g transform="translate(0)"><path d="M51.326,451.156a7.8,7.8,0,0,1-3.9,2.338l-13.3,2.439a3.791,3.791,0,0,0,.1-1.829,3.691,3.691,0,0,0-1.9-2.744l-8.2-4.777a6.532,6.532,0,0,0-6.4-.1l-6.4,3.354-1.4-4.269a.953.953,0,0,0-.9-.813h-8a1.228,1.228,0,0,0-.8.407.784.784,0,0,0-.1.915l8,24.393a.964.964,0,0,0,.9.711h8a1.228,1.228,0,0,0,.8-.406,1,1,0,0,0,.1-.915l-2.2-6.81h.6l11.1,3.964c.1,0,.2.1.3.1h.2l14.6-2.643a25.286,25.286,0,0,0,14-7.826,4.349,4.349,0,0,0,0-5.489A3.53,3.53,0,0,0,51.326,451.156ZM9.712,469.147l-7.3-22.361h5.9l7.3,22.361Zm45.315-13.925a22.986,22.986,0,0,1-12.9,7.216l-14.3,2.643-11-3.964c-.1,0-.2-.1-.3-.1h-1.4l-3.1-9.452h.1l6.7-3.456a4.719,4.719,0,0,1,4.5.1l8.2,4.777a1.79,1.79,0,0,1,.9,1.321,2.215,2.215,0,0,1-.5,1.728,1,1,0,0,1-.5.407l-.8.1a.746.746,0,0,1-.4-.1l-9.7-3.456a.894.894,0,0,0-1.2.61.913.913,0,0,0,.6,1.22l9.7,3.456a2.881,2.881,0,0,0,.9.2c.1,0,.3.1.5,0l16.806-3.049a9.974,9.974,0,0,0,5-2.846,1.507,1.507,0,0,1,2.3,0A2.038,2.038,0,0,1,55.027,455.222Z" transform="translate(0 -411.179)" fill="#225dfe" stroke="#225dfe" stroke-width="0.3"/><path d="M350.294,34.62c9.207,0,16.651-7.725,16.651-17.279S359.5.063,350.294.063s-16.65,7.725-16.65,17.279S341.087,34.62,350.294,34.62Zm0-32.525a14.956,14.956,0,0,1,14.692,15.246,14.7,14.7,0,1,1-29.383,0A14.956,14.956,0,0,1,350.294,2.1Z" transform="translate(-308.927 -0.063)" fill="#225dfe" stroke="#225dfe" stroke-width="0.3"/><path d="M401.962,82.076A13.222,13.222,0,1,0,389.23,68.863,12.954,12.954,0,0,0,401.962,82.076Zm0-24.393a11.188,11.188,0,1,1-10.774,11.18A10.951,10.951,0,0,1,401.962,57.682Z" transform="translate(-360.596 -51.584)" fill="#225dfe" stroke="#225dfe" stroke-width="0.3"/><path d="M501.381,176.985a1.039,1.039,0,0,0,.686-.3l7.836-8.131a1.008,1.008,0,0,0,0-1.423.923.923,0,0,0-1.371,0l-7.835,8.131a1.008,1.008,0,0,0,0,1.423A1.039,1.039,0,0,0,501.381,176.985Z" transform="translate(-464.233 -154.362)" fill="#225dfe" stroke="#225dfe" stroke-width="0.3"/><path d="M501.381,172.919a.874.874,0,0,0,.686-.3l3.918-4.066a1.008,1.008,0,0,0,0-1.423.923.923,0,0,0-1.371,0l-3.918,4.066a1.008,1.008,0,0,0,0,1.423A.875.875,0,0,0,501.381,172.919Z" transform="translate(-464.302 -154.382)" fill="#225dfe" stroke="#225dfe" stroke-width="0.3"/><path d="M560.2,222.713l-3.918,4.066a1.008,1.008,0,0,0,0,1.423.923.923,0,0,0,1.371,0l3.918-4.066a1.008,1.008,0,0,0,0-1.423A.923.923,0,0,0,560.2,222.713Z" transform="translate(-515.877 -205.823)" fill="#225dfe" stroke="#225dfe" stroke-width="0.3"/><ellipse cx="0.979" cy="1.016" rx="0.979" ry="1.016" transform="translate(11.02 53.907)" fill="#225dfe" stroke="#225dfe" stroke-width="0.3"/></g></g></g></svg>