<svg xmlns="http://www.w3.org/2000/svg" xmlns:xlink="http://www.w3.org/1999/xlink" viewBox="0 0 1920.07 1008.61"><defs><style>.cls-1{fill:#f2f5f7;}.cls-2{fill:url(#linear-gradient);}.cls-3{fill:#18273c;opacity:0.03;isolation:isolate;}.cls-4{fill:url(#linear-gradient-2);}.cls-5{fill:url(#linear-gradient-3);}.cls-6{fill:url(#linear-gradient-4);}.cls-7{fill:url(#linear-gradient-5);}.cls-8{fill:url(#linear-gradient-6);}.cls-9{fill:url(#linear-gradient-7);}.cls-10{fill:url(#linear-gradient-8);}.cls-11{fill:url(#linear-gradient-9);}</style><linearGradient id="linear-gradient" x1="1915.79" y1="851.11" x2="1910.32" y2="852.45" gradientUnits="userSpaceOnUse"><stop offset="0" stop-color="#225dfe"/><stop offset="1" stop-color="#0682fe"/></linearGradient><linearGradient id="linear-gradient-2" x1="463.45" y1="480.48" x2="31.42" y2="928.62" gradientUnits="userSpaceOnUse"><stop offset="0" stop-color="#0682fe"/><stop offset="1" stop-color="#2757ff"/></linearGradient><linearGradient id="linear-gradient-3" x1="1775.02" y1="933.17" x2="1771.61" y2="936.71" xlink:href="#linear-gradient-2"/><linearGradient id="linear-gradient-4" x1="1951.08" y1="729.95" x2="1889.75" y2="753.99" gradientUnits="userSpaceOnUse"><stop offset="0" stop-color="#2757ff"/><stop offset="0" stop-color="#0682fe"/><stop offset="1" stop-color="#2757ff"/></linearGradient><linearGradient id="linear-gradient-5" x1="1960.21" y1="199.77" x2="1534.01" y2="641.84" xlink:href="#linear-gradient-2"/><linearGradient id="linear-gradient-6" x1="1968.19" y1="694.17" x2="1859.92" y2="806.47" xlink:href="#linear-gradient-2"/><linearGradient id="linear-gradient-7" x1="1646.95" y1="-263.31" x2="359.33" y2="1072.31" xlink:href="#linear-gradient-2"/><linearGradient id="linear-gradient-8" x1="1943.6" y1="736.35" x2="1896.47" y2="747.9" xlink:href="#linear-gradient"/><linearGradient id="linear-gradient-9" x1="1915.57" y1="851.19" x2="1913.09" y2="851.8" xlink:href="#linear-gradient"/></defs><title>Contact svg</title><g id="Layer_2" data-name="Layer 2"><g id="Layer_1-2" data-name="Layer 1"><g id="Group_326" data-name="Group 326"><g id="Group_317" data-name="Group 317"><path class="cls-1" d="M1571.7,969.13q-19.11,2.64-38.58,5.1Q1552.59,971.76,1571.7,969.13Z"/><path class="cls-1" d="M1706.91,947.73q-8,1.44-16.11,2.86Q1698.9,949.18,1706.91,947.73Z"/><path class="cls-1" d="M1776.24,934.34l-1.81.38-5,1-5,1,2.94-.6c1-.19,2-.39,2.93-.6Z"/><path class="cls-1" d="M1902.71,904.68c-1.71.47-3.41.92-5.12,1.37l-8.35,2.18-1.35.35-7.07,1.81-8.49,2.14-.48.12-8.08,2-8.07,2q-8.94,2.16-18,4.28l-6.62,1.53q-6.63,1.51-13.35,3l-6.73,1.5-.09,0-9,2q-9.06,2-18.27,3.89l-4.61,1-2.81.57q9-1.85,17.79-3.74l9.69-2.09q9.75-2.12,19.35-4.29l1.24-.28,8-1.84,1-.24q7.38-1.71,14.67-3.44l3-.71,1.67-.4,5-1.21,2.56-.62,3.06-.75,3.05-.75,5.37-1.33q13.5-3.36,26.63-6.83Z"/><path class="cls-2" d="M1914,843.9v15.3h0l-2.17-.59H1914V843.9Z"/><path class="cls-1" d="M1914.07,843.9v15.32l-.06,0V843.9Z"/><path class="cls-1" d="M1914.07,901.6v0q-4.08,1.11-8.21,2.21l-2.24.59q5.22-1.4,10.38-2.8Z"/><path class="cls-1" d="M1571.7,969.13q-19.11,2.64-38.58,5.1Q1552.59,971.76,1571.7,969.13Z"/><path class="cls-1" d="M1706.91,947.73q-8,1.44-16.11,2.86Q1698.9,949.18,1706.91,947.73Z"/><path class="cls-1" d="M1914.07,901.6v0q-4.08,1.11-8.21,2.21c-2.74.74-5.5,1.48-8.27,2.2l-8.35,2.18-1.35.35-7.07,1.81-8.49,2.14-.48.12-8.08,2-8.07,2q-8.94,2.16-18,4.28l-6.62,1.53q-6.63,1.51-13.35,3l-6.73,1.5-.09,0-9,2q-9.06,2-18.27,3.89l-4.61,1-4.62,1-5,1-2,.4c1-.19,2-.39,2.93-.6l5.85-1.2q9-1.85,17.79-3.74l9.69-2.09q9.75-2.12,19.35-4.29l1.24-.28,8-1.84,1-.24q7.38-1.71,14.67-3.44l3-.71,1.67-.4,5-1.21,2.56-.62,3.06-.75,3.05-.75,5.37-1.33q13.5-3.36,26.63-6.83l4.33-1.14.91-.24q5.22-1.4,10.38-2.8Z"/><path class="cls-3" d="M171.55,939.9q-8.87-1.73-17.61-3.5Q162.69,938.17,171.55,939.9Z"/></g><g id="Group_325" data-name="Group 325"><path class="cls-4" d="M576,589V979.93L233.9,951.38q-8.21-1.43-16.33-2.87l-.9-.16-1.3-.24C135.71,933.68,66.69,917,0,898.33V405.22l.07,0V345l152.25,24.18h0l10.46,1.66V528.22l.22.67Z"/><path class="cls-5" d="M1776.24,934.34l-1.81.38-4,.82Z"/><path class="cls-6" d="M1920.07,640.33V843.9H1920V640.35Z"/></g><path class="cls-7" d="M1920.07,161.07V640.33l-.07,0-5.93,1.65,0,201.9h0v14.71H1758.86V403.89L1476.48,376V90.61Z"/><polygon class="cls-8" points="1914.07 642 1914.07 858.61 1914 858.61 1914 843.9 1914.02 843.9 1914.07 642"/><path class="cls-9" d="M1914,859.2h0l.06,0V642l5.93-1.65V843.9h.07v54.45l-6,3.25-.07,0q-5.16,1.41-10.38,2.8l-.91.24-4.33,1.14q-13.12,3.46-26.63,6.83l-5.37,1.33-3.05.75-3.06.75-2.56.62-5,1.21-1.67.4-3,.71q-7.29,1.73-14.67,3.44l-1,.24-8,1.84-1.24.28q-9.6,2.16-19.35,4.29L1794,930.6q-8.83,1.89-17.79,3.74l-5.85,1.2c-1,.21-2,.41-2.93.6l-2.94.6h0l-11.83,2.36q-8.93,1.75-18,3.48h0q-6.89,1.3-13.83,2.6c-4.63.85-9.29,1.71-14,2.55q-8,1.44-16.11,2.86t-16.27,2.8l-.5.08L1665,955l-9.12,1.5q-10.27,1.68-20.68,3.31l-7,1.08-7,1.07q-10.49,1.59-21.08,3.14c-4.71.68-9.44,1.37-14.18,2l-14.29,2q-19.11,2.63-38.58,5.1-52.8,6.71-108.07,12.19l-1.53.15q-10.05,1-20.16,1.94l-1.69.16-8.88.82-10.32.93-10.36.91q-8.86.76-17.77,1.5l-3.39.28-9.32.74-3.24.26-8.08.63q-8,.62-16,1.2h-.07l-16.08,1.16q-12.39.85-24.87,1.66l-15,.94c-3.69.22-7.38.45-11.09.66l-10.29.59q-10.3.59-20.67,1.11l-10.38.53-14.55.7q-21.27,1-42.78,1.8l-7.59.28q-14.81.54-29.71,1l-10.64.31q-10.66.3-21.37.55c-3.56.09-7.14.17-10.71.24q-21.46.46-43.11.74l-9.66.12-12,.11-10.87.08q-16.35.11-32.77.11-10.9,0-21.78-.05-7.86,0-15.68-.09-6.24,0-12.46-.11-14.18-.14-28.28-.36l-8.91-.14-11.26-.2q-8-.15-15.9-.34l-9.75-.23-10-.25-9.37-.26c-4.32-.12-8.65-.25-13-.39l-9.61-.31q-6.69-.21-13.37-.46-5.26-.18-10.52-.39c-.76,0-1.53,0-2.29-.09-3.21-.12-6.42-.24-9.63-.38l-1.71-.06L745.7,1004q-13.23-.56-26.37-1.21c-2.56-.12-5.11-.24-7.67-.38-2.83-.13-5.65-.28-8.47-.43q-5.94-.3-11.86-.63c-3.4-.18-6.81-.37-10.2-.57l-5.41-.31-10.57-.62Q642.94,998.56,621,997l-11.58-.82q-11.56-.84-23-1.73Q567,993,547.92,991.31l-8.5-.74q-33.24-2.94-65.67-6.32l-7.78-.82-8.83-.95-9.36-1q-5.62-.62-11.22-1.26t-11.18-1.29q-6.6-.76-13.18-1.56l-6.88-.83c-2.49-.3-5-.6-7.44-.92q-4.94-.6-9.84-1.23-6.59-.83-13.13-1.68l-8.83-1.17q-5.26-.69-10.5-1.41l-10.45-1.43q-11.29-1.54-22.47-3.19-9.42-1.37-18.76-2.77l-10.17-1.55c-5.08-.78-10.14-1.58-15.17-2.37s-10-1.61-15-2.42h0q-14.94-2.46-29.62-5L576,979.93V589L163,528.89l-.22-.67V370.8l-10.46-1.66h0L.07,345V0C108.7,30,236.9,54.87,379.17,73.23c175.62,22.67,372.7,35.38,580.9,35.38,205.84,0,400.79-12.42,574.9-34.62,144.67-18.43,274.94-43.6,385.1-74V161.07L1476.48,90.61V376l282.38,27.94V858.61h153"/><path class="cls-10" d="M1920.07,640.33V843.9H1920V640.35Z"/><path class="cls-11" d="M1914.07,843.9v15.32l-.06,0V843.9Z"/></g></g></g></svg>