<svg xmlns="http://www.w3.org/2000/svg" xmlns:xlink="http://www.w3.org/1999/xlink" width="2670" height="1357.448" viewBox="0 0 2670 1357.448"><defs><linearGradient id="a" x1="1" y1="0.61" x2="0" gradientUnits="objectBoundingBox"><stop offset="0" stop-color="#2757ff"/><stop offset="0.105" stop-color="#2658ff"/><stop offset="1" stop-color="#0682fe"/></linearGradient><linearGradient id="b" x1="0.957" y1="0.485" x2="0.198" y2="0.299" gradientUnits="objectBoundingBox"><stop offset="0" stop-color="#225dfe"/><stop offset="1" stop-color="#0682fe"/></linearGradient><filter id="c" x="999" y="0" width="1450" height="1328.588" filterUnits="userSpaceOnUse"><feOffset dy="3" input="SourceAlpha"/><feGaussianBlur stdDeviation="25" result="d"/><feFlood flood-color="#225dfe" flood-opacity="0.439"/><feComposite operator="in" in2="d"/><feComposite in="SourceGraphic"/></filter><clipPath id="e"><ellipse cx="1335" cy="356" rx="1335" ry="356" transform="translate(-375 573)" fill="#fff"/></clipPath><linearGradient id="f" y1="0.44" x2="1" y2="0.451" gradientUnits="objectBoundingBox"><stop offset="0" stop-color="#1993ff"/><stop offset="1" stop-color="#225dfe"/></linearGradient></defs><g transform="translate(375 72.448)"><path d="M0,0H1920V1175H0Z" fill="url(#a)"/><g transform="translate(699 54.644)" opacity="0.57"><g transform="translate(0 -55.092)"><g transform="matrix(1, 0, 0, 1, -1074, -72)" filter="url(#c)"><path d="M1300,366.491v410L866.657,740.338v438.25H433.343V480.768L0,437.885V0L866.686,137.675v165.09l.225.7Z" transform="translate(1074 72)" fill="url(#b)"/></g></g></g><g clip-path="url(#e)"><path d="M3,0H1327a3,3,0,0,1,3,3V281a0,0,0,0,1,0,0H0a0,0,0,0,1,0,0V3A3,3,0,0,1,3,0Z" transform="translate(295 1004)" fill="url(#f)"/></g></g></svg>