<svg xmlns="http://www.w3.org/2000/svg" viewBox="0 0 23.711 23.71">
  <g transform="translate(-61.75 -394.75)">
    <path
      d="M18.509,101.451a.341.341,0,0,0-.341.341v11.265a1.114,1.114,0,0,1-1.113,1.113H1.794a1.114,1.114,0,0,1-1.113-1.113V97.794a1.114,1.114,0,0,1,1.113-1.113H13.059a.341.341,0,0,0,0-.681H1.794A1.8,1.8,0,0,0,0,97.794v15.262a1.8,1.8,0,0,0,1.794,1.794H17.056a1.8,1.8,0,0,0,1.794-1.794V101.791A.341.341,0,0,0,18.509,101.451Z"
      transform="translate(62 303.361)"
      stroke-width="0.5"
    />
    <path
      d="M179.366,1.961,177.824.419a1.431,1.431,0,0,0-2.023,0L165.329,10.891a.34.34,0,0,0-.084.14l-1.188,3.816a.7.7,0,0,0,.881.881l3.816-1.188a.34.34,0,0,0,.14-.084L179.366,3.984a1.431,1.431,0,0,0,0-2.023ZM166.775,14.443l-1.433-1.433.472-1.516,2.477,2.477Zm-2.039.635a.023.023,0,0,1-.028-.028l.406-1.3.927.927ZM178.884,3.5,168.835,13.552l-2.6-2.6L176.283.9a.749.749,0,0,1,1.06,0l1.542,1.542a.749.749,0,0,1,0,1.06Z"
      transform="translate(-94.575 395)"
      stroke-width="0.5"
    />
  </g>
</svg>


