<svg xmlns="http://www.w3.org/2000/svg" viewBox="0 0 23.526 22.783">
  <path
    d="M30.654,27.141H29.54V26.4a1.116,1.116,0,0,0-.743-1.05v-.807a.371.371,0,0,0-.371-.371h-.743V22.313A6.321,6.321,0,0,0,21.37,16H17.656a6.321,6.321,0,0,0-6.313,6.313V24.17H10.6a.371.371,0,0,0-.371.371v.807a1.116,1.116,0,0,0-.743,1.05v.743H8.371A.371.371,0,0,0,8,27.513v4.457a.371.371,0,0,0,.371.371H9.486v.743A1.115,1.115,0,0,0,10.6,34.2h2.228a1.115,1.115,0,0,0,1.114-1.114V26.4a1.116,1.116,0,0,0-.743-1.05v-.807a.371.371,0,0,0-.371-.371h-.743V22.313a5.577,5.577,0,0,1,5.571-5.571H21.37a5.577,5.577,0,0,1,5.571,5.571V24.17H26.2a.371.371,0,0,0-.371.371v.807a1.116,1.116,0,0,0-.743,1.05v6.685A1.115,1.115,0,0,0,26.2,34.2h2.228a1.115,1.115,0,0,0,1.114-1.114v-.743h.371v3.342A1.115,1.115,0,0,1,28.8,36.8H21.37v-.371A.371.371,0,0,0,21,36.054H18.027a.371.371,0,0,0-.371.371v1.486a.371.371,0,0,0,.371.371H21a.371.371,0,0,0,.371-.371V37.54H28.8a1.859,1.859,0,0,0,1.857-1.857V32.341a.371.371,0,0,0,.371-.371V27.513A.371.371,0,0,0,30.654,27.141ZM8.743,31.6V27.884h.743V31.6ZM13.2,33.083a.372.372,0,0,1-.371.371H10.6a.372.372,0,0,1-.371-.371V26.4a.372.372,0,0,1,.371-.371h2.228a.372.372,0,0,1,.371.371Zm-.743-8.17v.371H10.971v-.371Zm8.17,12.627H18.4V36.8h2.228Zm5.942-12.627h1.486v.371H26.569Zm2.228,8.17a.372.372,0,0,1-.371.371H26.2a.372.372,0,0,1-.371-.371V26.4a.372.372,0,0,1,.371-.371h2.228a.372.372,0,0,1,.371.371ZM29.54,31.6V27.884h.743V31.6Z"
    transform="translate(-7.75 -15.75)"
    stroke-width="0.5"
  />
</svg>

