<svg xmlns="http://www.w3.org/2000/svg" viewBox="0 0 23.556 22.865">
  <g transform="translate(-9.1 -10.726)">
    <path
      d="M32.134,15.47H31.062a4.22,4.22,0,0,0-.529-1.277l.759-.759a.371.371,0,0,0,0-.526l-.818-.817a.371.371,0,0,0-.526,0l-.759.758a4.223,4.223,0,0,0-1.277-.529V11.248a.372.372,0,0,0-.372-.372H26.384a.372.372,0,0,0-.372.372V12.32a4.221,4.221,0,0,0-1.277.529l-.759-.758a.371.371,0,0,0-.526,0l-.818.818a.371.371,0,0,0,0,.526l.759.759a4.214,4.214,0,0,0-.529,1.277H21.79a.372.372,0,0,0-.372.372v.064H9.622a.372.372,0,0,0-.372.37V30.25a.372.372,0,0,0,.372.372H30.614a.372.372,0,0,0,.372-.372V20.236l.305-.305a.371.371,0,0,0,0-.526l-.759-.759a4.221,4.221,0,0,0,.529-1.277h1.072A.372.372,0,0,0,32.506,17V15.841A.372.372,0,0,0,32.134,15.47ZM9.993,29.879V16.648H21.418V17a.372.372,0,0,0,.372.372h1.072a4.215,4.215,0,0,0,.529,1.277l-.759.759a.371.371,0,0,0,0,.526l.818.818a.371.371,0,0,0,.526,0l.759-.759a4.215,4.215,0,0,0,1.277.529v1.072a.372.372,0,0,0,.372.372H27.54a.372.372,0,0,0,.372-.372V20.519a4.214,4.214,0,0,0,1.277-.529l.759.759a.369.369,0,0,0,.3.106V29.88ZM31.762,16.627H30.755a.372.372,0,0,0-.367.316,3.46,3.46,0,0,1-.634,1.529.372.372,0,0,0,.037.483l.713.713-.149.149,0,0-.14.14-.713-.713a.371.371,0,0,0-.483-.037,3.462,3.462,0,0,1-1.529.634.372.372,0,0,0-.316.367v1.008h-.415V20.213a.372.372,0,0,0-.316-.367,3.459,3.459,0,0,1-1.529-.634.372.372,0,0,0-.483.037l-.713.713-.292-.292.713-.713a.372.372,0,0,0,.037-.483,3.459,3.459,0,0,1-.634-1.529.372.372,0,0,0-.367-.316H22.162v-.414h1.008a.372.372,0,0,0,.367-.316,3.462,3.462,0,0,1,.634-1.529.372.372,0,0,0-.037-.483l-.713-.713.292-.292.713.713a.372.372,0,0,0,.483.037,3.46,3.46,0,0,1,1.529-.634.372.372,0,0,0,.316-.367V11.619h.414v1.008a.372.372,0,0,0,.316.367,3.462,3.462,0,0,1,1.529.634.372.372,0,0,0,.483-.037l.713-.713.292.292-.713.713a.372.372,0,0,0-.037.483,3.462,3.462,0,0,1,.634,1.529.372.372,0,0,0,.367.316h1.008Z"
      stroke-width="0.3"
    />
    <path
      d="M84.328,26.417a2.243,2.243,0,1,0,2.243,2.243A2.243,2.243,0,0,0,84.328,26.417Zm0,3.743a1.5,1.5,0,1,1,1.5-1.5A1.5,1.5,0,0,1,84.328,30.16Z"
      transform="translate(-57.366 -12.24)"
      stroke-width="0.3"
    />
    <path
      d="M52.319,55.61,47.208,52.4a.372.372,0,0,0-.569.315v6.418a.372.372,0,0,0,.569.316l5.111-3.209a.372.372,0,0,0,0-.63Zm-4.937,2.852V53.388l4.04,2.536Z"
      transform="translate(-29.448 -32.661)"
      stroke-width="0.3"
    />
    <path
      d="M30.614,106.787H15.142a1.131,1.131,0,0,0-1.081-.812H11.923a1.131,1.131,0,0,0-1.081.812H9.622a.372.372,0,0,0,0,.743h1.221a1.131,1.131,0,0,0,1.081.812H14.06a1.131,1.131,0,0,0,1.081-.812H30.614a.372.372,0,0,0,0-.743Zm-16.164.423a.39.39,0,0,1-.389.389H11.923a.39.39,0,0,1-.389-.389v-.1a.39.39,0,0,1,.389-.389H14.06a.39.39,0,0,1,.389.389Z"
      transform="translate(0 -74.902)"
      stroke-width="0.3"
    />
  </g>
</svg>